<svg width="512" height="512" viewBox="0 0 512 512" fill="none" xmlns="http://www.w3.org/2000/svg">
<rect x="9.5" y="9.5" width="493" height="493" rx="246.5" fill="white"/>
<rect x="9.5" y="9.5" width="493" height="493" rx="246.5" stroke="#C5C5C5" stroke-width="19"/>
<path d="M114.336 168.46H203.516C210.102 168.46 213.396 171.753 213.396 178.34C213.396 184.753 210.102 187.96 203.516 187.96H126.816V243.6H193.376C199.789 243.6 202.996 246.893 202.996 253.48C202.996 259.893 199.789 263.1 193.376 263.1H126.816V335.38C126.816 341.793 123.436 345 116.676 345H114.336C107.576 345 104.196 341.707 104.196 335.12V178.34C104.196 171.753 107.576 168.46 114.336 168.46ZM225.461 335.38L227.021 181.2C227.021 172.707 231.268 168.46 239.761 168.46H248.341C257.875 168.46 264.635 173.92 268.621 184.84C273.475 198.533 281.015 220.72 291.241 251.4C301.641 282.08 309.875 305.827 315.941 322.64C321.488 307.04 329.461 284.073 339.861 253.74C350.435 223.407 358.495 200.44 364.041 184.84C367.855 173.92 374.528 168.46 384.061 168.46H393.421C397.408 168.46 400.615 169.673 403.041 172.1C405.468 174.353 406.681 177.387 406.681 181.2V195.5L407.721 335.38C407.721 341.793 404.341 345 397.581 345H395.241C388.481 345 385.101 341.793 385.101 335.38L385.881 184.84C356.241 265.787 337.955 315.447 331.021 333.82C328.075 341.273 323.135 345 316.201 345H314.381C307.101 345 302.161 341.273 299.561 333.82C294.881 320.993 286.735 297.42 275.121 263.1C263.681 228.607 254.408 202.52 247.301 184.84L248.081 335.38C248.081 341.793 244.701 345 237.941 345H235.601C228.841 345 225.461 341.793 225.461 335.38Z" fill="url(#paint0_linear_1_4)"/>
<defs>
<linearGradient id="paint0_linear_1_4" x1="256" y1="167" x2="256" y2="356" gradientUnits="userSpaceOnUse">
<stop stop-color="#5DA2D7"/>
<stop offset="0.9999" stop-color="#A1479E"/>
<stop offset="1" stop-color="#5E4CBE"/>
</linearGradient>
</defs>
</svg>
